<svg viewBox="0 0 120 28" xmlns="http://www.w3.org/2000/svg"><g fill-rule="nonzero" fill="none"><path d="M89.598 12.435c0-3.009-2.429-5.448-5.425-5.448a5.392 5.392 0 0 0-3.889 1.654 5.395 5.395 0 0 0-6.662-.859h-2.637v4.634l-.001.034h.001v8.559h3.099v-8.56a2.329 2.329 0 0 1 2.325-2.333 2.329 2.329 0 0 1 2.324 2.334h.01v8.559h3.098v-8.56h.009l-.001-.014a2.33 2.33 0 0 1 2.324-2.334 2.329 2.329 0 0 1 2.324 2.334v.015h.003v8.559h3.098v-8.574M31.477 17.89A3.881 3.881 0 0 1 27.604 14a3.881 3.881 0 0 1 3.873-3.89A3.881 3.881 0 0 1 35.351 14a3.881 3.881 0 0 1-3.874 3.89m0-10.893a6.92 6.92 0 0 0-3.874 1.181v-.013h-3.1v16.337h3.1v-4.68a6.917 6.917 0 0 0 3.874 1.181c3.852 0 6.974-3.135 6.974-7.003 0-3.868-3.122-7.003-6.974-7.003M120 21.004l-5.037-7.002 4.897-6.808h-3.68l-3.058 4.25-3.057-4.25h-3.679l4.897 6.808-5.037 7.002h3.68l3.197-4.444 3.197 4.444zM46.588 6.998a5.76 5.76 0 0 0-2.712.677V3.5h-3.1v17.503h3.1v-8.17a2.717 2.717 0 0 1 2.712-2.723 2.717 2.717 0 0 1 2.711 2.723v8.17h3.098v-8.17h.002c0-3.223-2.602-5.836-5.811-5.836M61.696 10.116a3.877 3.877 0 0 1 3.694 2.718h-7.388a3.876 3.876 0 0 1 3.694-2.718zm6.87 5.052c.063-.379.103-.766.103-1.163 0-3.867-3.122-7.002-6.973-7.002-3.852 0-6.974 3.135-6.974 7.002 0 3.868 3.122 7.003 6.974 7.003a6.964 6.964 0 0 0 6.038-3.502L65.05 15.95a3.868 3.868 0 0 1-3.353 1.945 3.876 3.876 0 0 1-3.697-2.727h10.567zM98.886 10.116a3.877 3.877 0 0 1 3.694 2.718h-7.388a3.877 3.877 0 0 1 3.694-2.718zm6.87 5.052c.064-.379.104-.766.104-1.163 0-3.867-3.122-7.002-6.974-7.002-3.851 0-6.973 3.135-6.973 7.002 0 3.868 3.122 7.003 6.973 7.003a6.964 6.964 0 0 0 6.039-3.502l-2.685-1.556a3.868 3.868 0 0 1-3.354 1.945 3.876 3.876 0 0 1-3.696-2.727h10.566z" fill="#FFF"/><path d="M.106 21c0 3.866 3.121 7 6.971 7V14c0 3.866-3.121 7-6.97 7" fill="#38D102"/><path d="M.106 7v14c3.85 0 6.971-3.134 6.971-7S3.956 7 .107 7M10.562 14c0 3.866 3.121 7 6.971 7V7c0 3.866-3.12 7-6.97 7" fill="#FFF"/><path d="M10.562 0v14c3.85 0 6.971-3.134 6.971-7s-3.12-7-6.97-7" fill="#3CEAF3"/></g></svg>
