<svg width="181" height="60" viewBox="0 0 181 60" fill="none" xmlns="http://www.w3.org/2000/svg">
<path d="M7.12402 43.3848C7.12389 44.4878 6.62298 45.5321 5.76367 46.2237L0 50.8643V32.1475C0 31.0488 0.501867 30.0077 1.36133 29.3233L7.12402 24.7422V43.3848ZM16.5205 27.7794C16.5205 28.8824 16.0204 29.9275 15.1611 30.6192L9.39746 35.2579V16.5411C9.39749 15.4409 9.89789 14.4022 10.7588 13.7178L16.5205 9.1358V27.7794Z" fill="url(#paint0_linear_4071_10611)"/>
<path d="M38.7744 20.2632C42.6154 20.2632 45.7295 23.3773 45.7295 27.2183C45.7293 31.0591 42.6153 34.1724 38.7744 34.1724H29.7334V39.7368H23.4746V20.9585C23.4747 20.5745 23.786 20.2633 24.1699 20.2632H38.7744ZM29.7334 29.3042H38.7744C39.9266 29.3042 40.8611 28.3704 40.8613 27.2183C40.8613 26.066 39.9267 25.1313 38.7744 25.1313H29.7334V29.3042Z" fill="white"/>
<path d="M55.1182 27.5659H66.9414V20.2632H72.8535V39.0405C72.8535 39.4246 72.5413 39.7368 72.1572 39.7368H66.9414V32.4341H55.1182V39.7368H49.207V20.9585C49.2071 20.5745 49.5184 20.2633 49.9023 20.2632H55.1182V27.5659Z" fill="white"/>
<path d="M97.1943 24.7837H81.8936V27.9136H93.7168V32.0864H81.8936V35.2163H97.1943V39.0405C97.1943 39.4245 96.883 39.7367 96.499 39.7368H76.3301V20.9585C76.3302 20.5745 76.6414 20.2633 77.0254 20.2632H97.1943V24.7837Z" fill="white"/>
<path d="M113.538 27.5659L120.841 20.2632H126.404V39.0405C126.404 39.4246 126.093 39.7368 125.709 39.7368H120.841V27.5659L113.538 34.8677L106.235 27.5659V39.7368H100.672V20.9585C100.672 20.5745 100.983 20.2633 101.367 20.2632H106.235L113.538 27.5659Z" fill="white"/>
<path d="M150.747 24.7837H135.446V27.9136H147.27V32.0864H135.446V35.2163H150.747V39.0405C150.747 39.4245 150.436 39.7367 150.052 39.7368H129.883V20.9585C129.883 20.5745 130.194 20.2633 130.578 20.2632H150.747V24.7837Z" fill="white"/>
<path d="M161.527 20.2632L181 39.7368H173.698L167.611 33.6499L162.342 38.9214C161.82 39.443 161.113 39.7368 160.375 39.7368H154.225L163.96 29.9985L154.225 20.2632H161.527ZM173.002 28.2603L169.351 24.6089L172.883 21.0776C173.405 20.556 174.113 20.2632 174.851 20.2632H181L173.002 28.2603Z" fill="white"/>
<defs>
<linearGradient id="paint0_linear_4071_10611" x1="0.0869345" y1="50.8642" x2="16.4305" y2="9.30967" gradientUnits="userSpaceOnUse">
<stop stop-color="#7DE95B"/>
<stop offset="1" stop-color="#6EDEDD"/>
</linearGradient>
</defs>
</svg>
